# xmcd
#
# Track frame offsets:
#	150
#	19210
#	38402
#	54730
#	71005
#	83710
#	97315
#	111525
#	129292
#	143660
#	158510
#	171415
#	182472
#	201912
#	204985
#	224490
#	242287
#	257980
#
# Disc length: 3733 seconds
#
# Revision: 0
# Processed by: cddbd v1.4PL0 Copyright (c) Steve Scherf et al.
# Submitted via: EasyCDDAExtractor 4.6.9.1
#
DISCID=010e9312
DTITLE=Mönsterås Bluesband - Två rosor i buteljen
DYEAR=1994
DGENRE=Blues
TTITLE0=Rosor i buteljen
TTITLE1=You can be replaced
TTITLE2=Rätt é rätt
TTITLE3=Någon att hålla om
TTITLE4=Öken Fröken
TTITLE5=Travelin' man
TTITLE6=One more time
TTITLE7=Barberan
TTITLE8=Sofie
TTITLE9=If the washing don't get you The rinsing will
TTITLE10=Det ordnas dans
TTITLE11=Visa till damerna
TTITLE12=Hard times
TTITLE13=Hard times old version
TTITLE14=Längtan
TTITLE15=Feel so bad
TTITLE16=Swear to hell the truth
TTITLE17=O store Gud
EXTD=
EXTT0=
EXTT1=
EXTT2=
EXTT3=
EXTT4=
EXTT5=
EXTT6=
EXTT7=
EXTT8=
EXTT9=
EXTT10=
EXTT11=
EXTT12=
EXTT13=
EXTT14=
EXTT15=
EXTT16=
EXTT17=
PLAYORDER=
